<?xml version="1.0" encoding="UTF-8"?><svg id="a" xmlns="http://www.w3.org/2000/svg" width="100" height="100" viewBox="0 0 100 100"><rect width="100" height="100" fill="none" stroke-width="0"/><polygon points="49.99 75.61 47.57 69.69 42 69.69 49.99 87.5 57.99 69.69 52.42 69.69 49.99 75.61" fill="#fff" stroke-width="0"/><polygon points="31.89 68.1 34.36 62.2 30.42 58.26 23.48 76.51 41.73 69.57 37.79 65.64 31.89 68.1" fill="#fff" stroke-width="0"/><polygon points="30.31 52.42 24.39 49.99 30.31 47.57 30.31 42 12.5 49.99 30.31 57.99 30.31 52.42" fill="#fff" stroke-width="0"/><polygon points="34.36 37.79 31.9 31.89 37.8 34.36 41.74 30.42 23.49 23.48 30.43 41.73 34.36 37.79" fill="#fff" stroke-width="0"/><polygon points="50.01 24.39 52.43 30.31 58 30.31 50.01 12.5 42.01 30.31 47.58 30.31 50.01 24.39" fill="#fff" stroke-width="0"/><polygon points="68.11 31.9 65.64 37.8 69.58 41.74 76.52 23.49 58.27 30.43 62.21 34.36 68.11 31.9" fill="#fff" stroke-width="0"/><polygon points="69.69 58 87.5 50.01 69.69 42.01 69.69 47.58 75.61 50.01 69.69 52.43 69.69 58" fill="#fff" stroke-width="0"/><polygon points="65.64 62.21 68.1 68.11 62.2 65.64 58.26 69.58 76.51 76.52 69.57 58.27 65.64 62.21" fill="#fff" stroke-width="0"/><path d="M61.6,61.61l7.87-3.52-.03-.03h.04s-3.07-8.06-3.07-8.06l3.08-8.06h-.04s.03-.03.03-.03l-7.87-3.52-3.52-7.87-.03.03v-.04s-8.06,3.07-8.06,3.07l-8.06-3.08v.04s-.03-.03-.03-.03l-3.52,7.87-7.87,3.52.03.03h-.04s3.07,8.06,3.07,8.06l-3.08,8.06h.04s-.03.03-.03.03l7.87,3.52,3.52,7.87.03-.03v.04s8.06-3.07,8.06-3.07l8.06,3.08v-.04s.03.03.03.03l3.52-7.87ZM43.67,52.62c-3.3-8.47,8.83-13.64,12.65-5.39,3.3,8.47-8.83,13.64-12.65,5.39Z" fill="#fff" stroke-width="0"/><path d="M58.11,69.64l-.03-.03-.06-.02-8.02-3.07-8.07,3.08-.04.04v-.02s-.03,0-.03,0v-.05s-3.53-7.9-3.53-7.9l-7.89-3.53h-.06s0-.02,0-.02h-.02s.03-.04.03-.04l3.09-8.09-3.08-8.07-.04-.04h.02s0-.03,0-.03h.05s7.9-3.53,7.9-3.53l3.53-7.89v-.06s.02,0,.02,0v-.02s.04.03.04.03l.06.02,8.02,3.07,8.07-3.08.04-.04v.02s.03,0,.03,0v.05s3.53,7.9,3.53,7.9l7.89,3.53h.06s0,.02,0,.02h.02s-.03.04-.03.04l-3.09,8.09,3.08,8.08.04.04h-.02s0,.03,0,.03h-.05s-.06.03-.06.03l-7.84,3.51-3.53,7.89v.06s-.02,0-.02,0v.02ZM49.99,66.32l7.97,3.04v-.12s.09.08.09.08l3.48-7.78h.03s7.75-3.48,7.75-3.48l-.08-.09h.11s-3.04-7.97-3.04-7.97l3.04-7.97h-.12s.08-.09.08-.09l-7.78-3.48v-.03s-3.48-7.75-3.48-7.75l-.09.08v-.11s-7.97,3.04-7.97,3.04l-7.97-3.04v.12s-.09-.08-.09-.08l-3.48,7.78h-.03s-7.75,3.48-7.75,3.48l.08.09h-.11s3.04,7.97,3.04,7.97l-3.04,7.97h.12s-.08.09-.08.09l7.78,3.48v.03s3.48,7.75,3.48,7.75l.09-.08v.11s7.97-3.04,7.97-3.04ZM49.82,56.88c-2.37,0-4.83-1.19-6.23-4.22h0c-1.72-4.43.71-7.82,3.71-9.09,2.99-1.27,7.12-.68,9.12,3.62,1.72,4.43-.71,7.82-3.71,9.09-.89.38-1.88.59-2.89.59ZM43.76,52.58c1.94,4.19,5.96,4.77,8.87,3.53,2.91-1.24,5.28-4.54,3.61-8.84-1.94-4.19-5.96-4.76-8.87-3.52-2.91,1.24-5.28,4.53-3.61,8.84Z" fill="#fff" stroke-width="0"/></svg>